<mxfile host="65bd71144e">
    <diagram id="D6RHEGX3NMfl-sQUAem6" name="Page-1">
        <mxGraphModel dx="628" dy="353" grid="1" gridSize="10" guides="1" tooltips="1" connect="1" arrows="1" fold="1" page="1" pageScale="1" pageWidth="850" pageHeight="1100" math="0" shadow="0">
            <root>
                <mxCell id="0"/>
                <mxCell id="1" parent="0"/>
                <mxCell id="3" value="Equipo deportivo - FÃºtbol" style="text;strokeColor=none;fillColor=none;html=1;fontSize=24;fontStyle=1;verticalAlign=middle;align=center;" parent="1" vertex="1">
                    <mxGeometry x="273" y="120" width="305" height="40" as="geometry"/>
                </mxCell>
                <mxCell id="53" style="edgeStyle=none;html=1;exitX=1;exitY=0.5;exitDx=0;exitDy=0;entryX=0;entryY=0.5;entryDx=0;entryDy=0;fontSize=13;endArrow=none;endFill=0;" edge="1" parent="1" source="6" target="42">
                    <mxGeometry relative="1" as="geometry"/>
                </mxCell>
                <mxCell id="95" style="edgeStyle=none;html=1;exitX=0;exitY=1;exitDx=0;exitDy=0;entryX=0.5;entryY=0;entryDx=0;entryDy=0;fontSize=13;endArrow=none;endFill=0;" edge="1" parent="1" source="6" target="93">
                    <mxGeometry relative="1" as="geometry"/>
                </mxCell>
                <mxCell id="6" value="Partidos" style="whiteSpace=wrap;html=1;align=center;fontSize=16;fillColor=default;" parent="1" vertex="1">
                    <mxGeometry x="375" y="260" width="100" height="40" as="geometry"/>
                </mxCell>
                <mxCell id="23" style="edgeStyle=none;html=1;exitX=0.5;exitY=1;exitDx=0;exitDy=0;entryX=0.5;entryY=0;entryDx=0;entryDy=0;fontSize=10;endArrow=none;endFill=0;" parent="1" source="22" target="6" edge="1">
                    <mxGeometry relative="1" as="geometry"/>
                </mxCell>
                <mxCell id="22" value="&lt;u&gt;id&lt;/u&gt;" style="ellipse;whiteSpace=wrap;html=1;align=center;fontSize=10;fillColor=default;" parent="1" vertex="1">
                    <mxGeometry x="390" y="220" width="30" height="20" as="geometry"/>
                </mxCell>
                <mxCell id="40" value="&lt;font style=&quot;font-weight: normal; font-size: 13px;&quot;&gt;Iker Landeros De La O - A01423214&lt;/font&gt;" style="text;strokeColor=none;fillColor=none;html=1;fontSize=24;fontStyle=1;verticalAlign=middle;align=center;" vertex="1" parent="1">
                    <mxGeometry x="317" y="160" width="217" height="20" as="geometry"/>
                </mxCell>
                <mxCell id="42" value="&lt;font style=&quot;font-size: 14px;&quot;&gt;tiene&lt;/font&gt;" style="shape=rhombus;perimeter=rhombusPerimeter;whiteSpace=wrap;html=1;align=center;fontSize=16;fillColor=default;" vertex="1" parent="1">
                    <mxGeometry x="500" y="260" width="60" height="40" as="geometry"/>
                </mxCell>
                <mxCell id="43" value="1" style="text;html=1;align=center;verticalAlign=middle;resizable=0;points=[];autosize=1;strokeColor=none;fillColor=none;fontSize=10;" vertex="1" parent="1">
                    <mxGeometry x="490" y="250" width="30" height="30" as="geometry"/>
                </mxCell>
                <mxCell id="44" value="1" style="text;html=1;align=center;verticalAlign=middle;resizable=0;points=[];autosize=1;strokeColor=none;fillColor=none;fontSize=10;" vertex="1" parent="1">
                    <mxGeometry x="540" y="250" width="30" height="30" as="geometry"/>
                </mxCell>
                <mxCell id="45" value="" style="shape=link;html=1;rounded=0;fontSize=10;endArrow=none;endFill=0;entryX=0;entryY=0.5;entryDx=0;entryDy=0;exitX=1;exitY=0.5;exitDx=0;exitDy=0;" edge="1" parent="1" source="42" target="46">
                    <mxGeometry relative="1" as="geometry">
                        <mxPoint x="534" y="285" as="sourcePoint"/>
                        <mxPoint x="654" y="260" as="targetPoint"/>
                    </mxGeometry>
                </mxCell>
                <mxCell id="46" value="&lt;font style=&quot;font-size: 16px;&quot;&gt;Resultado&lt;/font&gt;" style="shape=ext;margin=3;double=1;whiteSpace=wrap;html=1;align=center;fontSize=10;fillColor=default;" vertex="1" parent="1">
                    <mxGeometry x="604" y="260" width="100" height="40" as="geometry"/>
                </mxCell>
                <mxCell id="47" style="edgeStyle=none;html=1;exitX=0;exitY=0.5;exitDx=0;exitDy=0;entryX=1;entryY=0.5;entryDx=0;entryDy=0;fontSize=10;endArrow=none;endFill=0;" edge="1" parent="1" source="58" target="46">
                    <mxGeometry relative="1" as="geometry">
                        <mxPoint x="724" y="280" as="sourcePoint"/>
                    </mxGeometry>
                </mxCell>
                <mxCell id="49" style="edgeStyle=none;html=1;exitX=0.5;exitY=1;exitDx=0;exitDy=0;entryX=0.5;entryY=0;entryDx=0;entryDy=0;fontSize=10;endArrow=none;endFill=0;" edge="1" parent="1" source="50" target="46">
                    <mxGeometry relative="1" as="geometry"/>
                </mxCell>
                <mxCell id="50" value="&lt;span style=&quot;border-bottom: 1px dotted&quot;&gt;goles&lt;/span&gt;" style="ellipse;whiteSpace=wrap;html=1;align=center;fontSize=10;fillColor=default;" vertex="1" parent="1">
                    <mxGeometry x="639" y="220" width="30" height="20" as="geometry"/>
                </mxCell>
                <mxCell id="51" style="edgeStyle=none;html=1;exitX=0.5;exitY=0;exitDx=0;exitDy=0;entryX=0.5;entryY=1;entryDx=0;entryDy=0;fontSize=10;endArrow=none;endFill=0;" edge="1" parent="1" source="52" target="46">
                    <mxGeometry relative="1" as="geometry"/>
                </mxCell>
                <mxCell id="52" value="&lt;span style=&quot;border-bottom: 1px dotted&quot;&gt;isGanador&lt;/span&gt;" style="ellipse;whiteSpace=wrap;html=1;align=center;fontSize=10;fillColor=default;" vertex="1" parent="1">
                    <mxGeometry x="624.5" y="320" width="59" height="20" as="geometry"/>
                </mxCell>
                <mxCell id="56" style="edgeStyle=none;html=1;exitX=0.5;exitY=1;exitDx=0;exitDy=0;entryX=0.5;entryY=0;entryDx=0;entryDy=0;fontSize=13;endArrow=none;endFill=0;" edge="1" parent="1" source="57" target="6">
                    <mxGeometry relative="1" as="geometry">
                        <mxPoint x="445.0000000000001" y="240" as="sourcePoint"/>
                    </mxGeometry>
                </mxCell>
                <mxCell id="57" value="&lt;span style=&quot;border-bottom: 1px dotted&quot;&gt;fecha&lt;/span&gt;" style="ellipse;whiteSpace=wrap;html=1;align=center;fontSize=10;fillColor=default;" vertex="1" parent="1">
                    <mxGeometry x="430" y="220" width="30" height="20" as="geometry"/>
                </mxCell>
                <mxCell id="58" value="&lt;u&gt;id&lt;/u&gt;" style="ellipse;whiteSpace=wrap;html=1;align=center;fontSize=10;fillColor=default;" vertex="1" parent="1">
                    <mxGeometry x="724" y="270" width="30" height="20" as="geometry"/>
                </mxCell>
                <mxCell id="61" style="edgeStyle=none;html=1;exitX=1;exitY=0.5;exitDx=0;exitDy=0;entryX=0;entryY=0.5;entryDx=0;entryDy=0;fontSize=13;endArrow=none;endFill=0;" edge="1" parent="1" source="60" target="6">
                    <mxGeometry relative="1" as="geometry"/>
                </mxCell>
                <mxCell id="60" value="&lt;font style=&quot;font-size: 14px;&quot;&gt;juegan&lt;/font&gt;" style="shape=rhombus;perimeter=rhombusPerimeter;whiteSpace=wrap;html=1;align=center;fontSize=16;fillColor=default;" vertex="1" parent="1">
                    <mxGeometry x="280" y="260" width="60" height="40" as="geometry"/>
                </mxCell>
                <mxCell id="62" value="1" style="text;html=1;align=center;verticalAlign=middle;resizable=0;points=[];autosize=1;strokeColor=none;fillColor=none;fontSize=10;" vertex="1" parent="1">
                    <mxGeometry x="317" y="250" width="30" height="30" as="geometry"/>
                </mxCell>
                <mxCell id="63" value="m" style="text;html=1;align=center;verticalAlign=middle;resizable=0;points=[];autosize=1;strokeColor=none;fillColor=none;fontSize=10;" vertex="1" parent="1">
                    <mxGeometry x="270" y="250" width="30" height="30" as="geometry"/>
                </mxCell>
                <mxCell id="65" style="edgeStyle=none;html=1;exitX=1;exitY=0.5;exitDx=0;exitDy=0;entryX=0;entryY=0.5;entryDx=0;entryDy=0;fontSize=13;endArrow=none;endFill=0;" edge="1" parent="1" source="64" target="60">
                    <mxGeometry relative="1" as="geometry"/>
                </mxCell>
                <mxCell id="80" style="edgeStyle=none;html=1;exitX=0;exitY=0.5;exitDx=0;exitDy=0;entryX=0.5;entryY=1;entryDx=0;entryDy=0;fontSize=13;endArrow=none;endFill=0;" edge="1" parent="1" source="64" target="71">
                    <mxGeometry relative="1" as="geometry"/>
                </mxCell>
                <mxCell id="82" style="edgeStyle=none;html=1;exitX=0;exitY=0.5;exitDx=0;exitDy=0;entryX=0.5;entryY=0;entryDx=0;entryDy=0;fontSize=13;endArrow=none;endFill=0;" edge="1" parent="1" source="64" target="74">
                    <mxGeometry relative="1" as="geometry"/>
                </mxCell>
                <mxCell id="83" style="edgeStyle=none;html=1;exitX=0.5;exitY=0;exitDx=0;exitDy=0;entryX=0.5;entryY=1;entryDx=0;entryDy=0;fontSize=13;endArrow=none;endFill=0;" edge="1" parent="1" source="64" target="70">
                    <mxGeometry relative="1" as="geometry"/>
                </mxCell>
                <mxCell id="64" value="Jugador" style="whiteSpace=wrap;html=1;align=center;fontSize=16;fillColor=default;" vertex="1" parent="1">
                    <mxGeometry x="150" y="260" width="100" height="40" as="geometry"/>
                </mxCell>
                <mxCell id="67" style="edgeStyle=none;html=1;exitX=0.5;exitY=0;exitDx=0;exitDy=0;entryX=0.5;entryY=1;entryDx=0;entryDy=0;fontSize=13;endArrow=none;endFill=0;" edge="1" parent="1" source="66" target="6">
                    <mxGeometry relative="1" as="geometry"/>
                </mxCell>
                <mxCell id="66" value="estadio" style="ellipse;whiteSpace=wrap;html=1;align=center;fontSize=10;fillColor=default;" vertex="1" parent="1">
                    <mxGeometry x="400" y="320" width="50" height="20" as="geometry"/>
                </mxCell>
                <mxCell id="78" style="edgeStyle=none;html=1;exitX=0.5;exitY=1;exitDx=0;exitDy=0;fontSize=13;endArrow=none;endFill=0;" edge="1" parent="1" source="69">
                    <mxGeometry relative="1" as="geometry">
                        <mxPoint x="200" y="260" as="targetPoint"/>
                    </mxGeometry>
                </mxCell>
                <mxCell id="69" value="&lt;u&gt;id&lt;/u&gt;" style="ellipse;whiteSpace=wrap;html=1;align=center;fontSize=10;fillColor=default;" vertex="1" parent="1">
                    <mxGeometry x="150" y="220" width="30" height="20" as="geometry"/>
                </mxCell>
                <mxCell id="70" value="&lt;span style=&quot;border-bottom: 1px dotted&quot;&gt;edad&lt;/span&gt;" style="ellipse;whiteSpace=wrap;html=1;align=center;fontSize=10;fillColor=default;" vertex="1" parent="1">
                    <mxGeometry x="210" y="220" width="30" height="20" as="geometry"/>
                </mxCell>
                <mxCell id="71" value="&lt;span style=&quot;border-bottom: 1px dotted&quot;&gt;nombre&lt;/span&gt;&lt;span style=&quot;color: rgba(0, 0, 0, 0); font-family: monospace; font-size: 0px; text-align: start;&quot;&gt;%3CmxGraphModel%3E%3Croot%3E%3CmxCell%20id%3D%220%22%2F%3E%3CmxCell%20id%3D%221%22%20parent%3D%220%22%2F%3E%3CmxCell%20id%3D%222%22%20value%3D%22%26lt%3Bspan%20style%3D%26quot%3Bborder-bottom%3A%201px%20dotted%26quot%3B%26gt%3Bdob%26lt%3B%2Fspan%26gt%3B%22%20style%3D%22ellipse%3BwhiteSpace%3Dwrap%3Bhtml%3D1%3Balign%3Dcenter%3BfontSize%3D10%3BfillColor%3Ddefault%3B%22%20vertex%3D%221%22%20parent%3D%221%22%3E%3CmxGeometry%20x%3D%22120%22%20y%3D%22180%22%20width%3D%2230%22%20height%3D%2220%22%20as%3D%22geometry%22%2F%3E%3C%2FmxCell%3E%3C%2Froot%3E%3C%2FmxGraphModel%3E&lt;/span&gt;" style="ellipse;whiteSpace=wrap;html=1;align=center;fontSize=10;fillColor=default;" vertex="1" parent="1">
                    <mxGeometry x="100" y="240" width="40" height="20" as="geometry"/>
                </mxCell>
                <mxCell id="74" value="posiciÃ³n" style="ellipse;whiteSpace=wrap;html=1;align=center;fontSize=10;fillColor=default;" vertex="1" parent="1">
                    <mxGeometry x="100" y="290" width="40" height="20" as="geometry"/>
                </mxCell>
                <mxCell id="103" style="edgeStyle=none;html=1;exitX=0.5;exitY=1;exitDx=0;exitDy=0;entryX=0.5;entryY=0;entryDx=0;entryDy=0;fontSize=13;endArrow=none;endFill=0;" edge="1" parent="1" source="85" target="102">
                    <mxGeometry relative="1" as="geometry"/>
                </mxCell>
                <mxCell id="106" style="edgeStyle=none;html=1;exitX=1;exitY=1;exitDx=0;exitDy=0;entryX=0;entryY=0;entryDx=0;entryDy=0;fontSize=13;endArrow=none;endFill=0;" edge="1" parent="1" source="85" target="104">
                    <mxGeometry relative="1" as="geometry"/>
                </mxCell>
                <mxCell id="85" value="&lt;font style=&quot;font-size: 16px;&quot;&gt;EstadÃ­stica&lt;/font&gt;" style="shape=ext;margin=3;double=1;whiteSpace=wrap;html=1;align=center;fontSize=10;fillColor=default;" vertex="1" parent="1">
                    <mxGeometry x="260" y="440" width="100" height="40" as="geometry"/>
                </mxCell>
                <mxCell id="87" style="edgeStyle=none;html=1;exitX=0.5;exitY=0;exitDx=0;exitDy=0;entryX=0.5;entryY=1;entryDx=0;entryDy=0;fontSize=13;endArrow=none;endFill=0;" edge="1" parent="1" source="86" target="64">
                    <mxGeometry relative="1" as="geometry"/>
                </mxCell>
                <mxCell id="86" value="&lt;font style=&quot;font-size: 14px;&quot;&gt;tiene&lt;/font&gt;" style="shape=rhombus;perimeter=rhombusPerimeter;whiteSpace=wrap;html=1;align=center;fontSize=16;fillColor=default;" vertex="1" parent="1">
                    <mxGeometry x="180" y="360" width="60" height="40" as="geometry"/>
                </mxCell>
                <mxCell id="90" value="&lt;font style=&quot;font-size: 14px;&quot;&gt;tiene&lt;/font&gt;" style="shape=rhombus;perimeter=rhombusPerimeter;whiteSpace=wrap;html=1;align=center;fontSize=16;fillColor=default;" vertex="1" parent="1">
                    <mxGeometry x="420" y="370" width="60" height="40" as="geometry"/>
                </mxCell>
                <mxCell id="91" value="1" style="text;html=1;align=center;verticalAlign=middle;resizable=0;points=[];autosize=1;strokeColor=none;fillColor=none;fontSize=10;" vertex="1" parent="1">
                    <mxGeometry x="180" y="340" width="30" height="30" as="geometry"/>
                </mxCell>
                <mxCell id="92" value="1" style="text;html=1;align=center;verticalAlign=middle;resizable=0;points=[];autosize=1;strokeColor=none;fillColor=none;fontSize=10;" vertex="1" parent="1">
                    <mxGeometry x="210" y="390" width="30" height="30" as="geometry"/>
                </mxCell>
                <mxCell id="93" value="&lt;font style=&quot;font-size: 14px;&quot;&gt;tiene&lt;/font&gt;" style="shape=rhombus;perimeter=rhombusPerimeter;whiteSpace=wrap;html=1;align=center;fontSize=16;fillColor=default;" vertex="1" parent="1">
                    <mxGeometry x="330" y="360" width="60" height="40" as="geometry"/>
                </mxCell>
                <mxCell id="94" value="1" style="text;html=1;align=center;verticalAlign=middle;resizable=0;points=[];autosize=1;strokeColor=none;fillColor=none;fontSize=10;" vertex="1" parent="1">
                    <mxGeometry x="330" y="347" width="30" height="30" as="geometry"/>
                </mxCell>
                <mxCell id="97" value="m" style="text;html=1;align=center;verticalAlign=middle;resizable=0;points=[];autosize=1;strokeColor=none;fillColor=none;fontSize=10;" vertex="1" parent="1">
                    <mxGeometry x="330" y="390" width="30" height="30" as="geometry"/>
                </mxCell>
                <mxCell id="99" style="edgeStyle=none;html=1;exitX=0.5;exitY=1;exitDx=0;exitDy=0;entryX=0.5;entryY=0;entryDx=0;entryDy=0;fontSize=13;endArrow=none;endFill=0;" edge="1" parent="1" source="98" target="85">
                    <mxGeometry relative="1" as="geometry"/>
                </mxCell>
                <mxCell id="98" value="&lt;u&gt;id&lt;/u&gt;" style="ellipse;whiteSpace=wrap;html=1;align=center;fontSize=10;fillColor=default;" vertex="1" parent="1">
                    <mxGeometry x="270" y="410" width="30" height="20" as="geometry"/>
                </mxCell>
                <mxCell id="101" style="edgeStyle=none;html=1;exitX=1;exitY=0.5;exitDx=0;exitDy=0;entryX=0;entryY=0.5;entryDx=0;entryDy=0;fontSize=13;endArrow=none;endFill=0;" edge="1" parent="1" source="100" target="85">
                    <mxGeometry relative="1" as="geometry"/>
                </mxCell>
                <mxCell id="100" value="&lt;span style=&quot;border-bottom: 1px dotted&quot;&gt;pases&lt;/span&gt;" style="ellipse;whiteSpace=wrap;html=1;align=center;fontSize=10;fillColor=default;" vertex="1" parent="1">
                    <mxGeometry x="210" y="470" width="30" height="20" as="geometry"/>
                </mxCell>
                <mxCell id="102" value="&lt;span style=&quot;border-bottom: 1px dotted&quot;&gt;tiros&lt;/span&gt;" style="ellipse;whiteSpace=wrap;html=1;align=center;fontSize=10;fillColor=default;" vertex="1" parent="1">
                    <mxGeometry x="295" y="510" width="30" height="20" as="geometry"/>
                </mxCell>
                <mxCell id="104" value="&lt;span style=&quot;border-bottom: 1px dotted&quot;&gt;posesiÃ³n&lt;/span&gt;" style="ellipse;whiteSpace=wrap;html=1;align=center;fontSize=10;fillColor=default;" vertex="1" parent="1">
                    <mxGeometry x="370" y="490" width="50" height="20" as="geometry"/>
                </mxCell>
                <mxCell id="107" value="" style="shape=link;html=1;rounded=0;fontSize=10;endArrow=none;endFill=0;entryX=1;entryY=0;entryDx=0;entryDy=0;exitX=0.5;exitY=1;exitDx=0;exitDy=0;" edge="1" parent="1" source="93" target="85">
                    <mxGeometry relative="1" as="geometry">
                        <mxPoint x="570" y="290" as="sourcePoint"/>
                        <mxPoint x="614" y="290" as="targetPoint"/>
                    </mxGeometry>
                </mxCell>
                <mxCell id="108" value="" style="shape=link;html=1;rounded=0;fontSize=10;endArrow=none;endFill=0;entryX=0;entryY=0;entryDx=0;entryDy=0;exitX=0.5;exitY=1;exitDx=0;exitDy=0;" edge="1" parent="1" source="86" target="85">
                    <mxGeometry relative="1" as="geometry">
                        <mxPoint x="370" y="410" as="sourcePoint"/>
                        <mxPoint x="370" y="450" as="targetPoint"/>
                    </mxGeometry>
                </mxCell>
            </root>
        </mxGraphModel>
    </diagram>
</mxfile>